<?xml version="1.0" encoding="utf-8"?>
<!-- Generator: Adobe Illustrator 25.3.0, SVG Export Plug-In . SVG Version: 6.00 Build 0)  -->
<svg version="1.1" id="Layer_1" xmlns="http://www.w3.org/2000/svg" xmlns:xlink="http://www.w3.org/1999/xlink" x="0px" y="0px"
	 viewBox="0 0 2093.7 549.1" style="enable-background:new 0 0 2093.7 549.1;" xml:space="preserve">
<style type="text/css">
	.st0{fill:#FFFFFF;}
</style>
<path class="st0" d="M230.5,315.9v146.3c0,10.7-8.7,19.4-19.4,19.3c-3.4,0-6.7-0.9-9.6-2.6L85.2,411.9C72.7,404.7,65,391.4,65,377
	V222.1c0-4.1,3.3-7.5,7.4-7.5c1.3,0,2.6,0.3,3.7,1l144.6,83.5C226.8,302.6,230.5,309,230.5,315.9z"/>
<path class="st0" d="M445.6,222.1V377c0,14.4-7.7,27.7-20.2,34.9L309.2,479c-9.3,5.3-21.1,2.2-26.5-7.1c-1.7-2.9-2.6-6.3-2.6-9.7
	V315.9c0-6.9,3.7-13.3,9.7-16.8l144.6-83.5c3.6-2.1,8.1-0.8,10.2,2.7C445.3,219.5,445.6,220.8,445.6,222.1z"/>
<path class="st0" d="M255.3,103.2c1.3,0,2.5,0.4,3.6,1l101.4,58.5l-105,60.6l-105-60.6l101.4-58.5
	C252.8,103.5,254.1,103.2,255.3,103.2 M255.4,67.4c-7.6,0-15,2-21.5,5.8L90.7,155.8c-3.8,2.2-5.1,7.2-2.8,11
	c0.7,1.2,1.7,2.1,2.8,2.8L245,258.6c6.4,3.7,14.3,3.7,20.7,0l154.2-89.1c3.8-2.2,5.1-7.2,2.8-11c-0.7-1.2-1.7-2.1-2.8-2.8
	L276.8,73.2C270.3,69.4,262.9,67.4,255.4,67.4L255.4,67.4z"/>
<path class="st0" d="M672.5,180.3v20.5c4.4-2.8,9.2-5.7,14.5-8.7c5.5-3.1,11.2-5.8,17-8.1c6.4-2.5,13-4.5,19.7-6
	c7.5-1.6,15.1-2.4,22.7-2.4c7-0.1,14.1,0.7,20.9,2.5c5.5,1.4,10.7,3.6,15.5,6.5c4.1,2.5,7.9,5.5,11.2,9c2.9,3.1,5.6,6.4,8,9.8
	c6.4-4.2,12.8-8,19-11.4c6.1-3.4,12.4-6.3,18.8-8.8c6.3-2.4,12.8-4.3,19.4-5.6c6.8-1.3,13.7-2,20.6-2c10.4-0.2,20.7,1.4,30.6,4.8
	c8.4,2.8,16.2,7.2,22.8,13c6.1,5.4,11,12,14.3,19.5c3.3,7.5,5,15.7,5,23.9v129.9h-50.4V243.9c0.1-4.4-0.7-8.8-2.3-12.9
	c-1.4-3.4-3.5-6.4-6.2-8.8c-2.6-2.3-5.7-4-9.1-5c-3.6-1.1-7.3-1.6-11-1.6c-18.1,0-38.7,8.1-61.8,24.4c0.3,1.8,0.5,3.6,0.6,5.4
	c0.1,2.1,0.2,4.2,0.2,6.2v115h-50.4V242.9c0.1-4.3-0.7-8.7-2.3-12.7c-1.4-3.3-3.6-6.2-6.3-8.5c-2.7-2.2-5.9-3.8-9.2-4.7
	c-3.6-1-7.3-1.4-11-1.4c-5,0-10,0.7-14.9,2c-5.4,1.4-10.7,3.3-15.7,5.7c-5.4,2.5-10.7,5.4-15.7,8.7c-5.1,3.3-9.9,6.9-14.6,10.9
	v123.8h-50.3V180.3H672.5z"/>
<path class="st0" d="M1217.7,357.5c-14.9,5-30.2,8.6-45.8,10.9c-15.5,2.2-31.1,3.3-46.7,3.3c-20.3,0-38.4-2.2-54.3-6.6
	s-29.2-10.7-40.1-19.1c-10.6-8-19.1-18.5-24.8-30.5c-5.7-12-8.5-25.6-8.5-40.8c-0.1-13.6,2.8-27,8.6-39.3
	c5.8-12.1,14.1-22.8,24.4-31.5c10.5-8.9,23.3-15.9,38.2-20.9c14.9-5,31.6-7.5,49.9-7.5c16.9,0,32.4,2.3,46.4,6.9
	c13.3,4.2,25.7,11.1,36.2,20.3c10.2,9.1,18.2,20.4,23.5,33.1c5.6,13.1,8.3,28.2,8.3,45.3v12.5h-183.6c3.3,12.4,11.8,22.8,23.3,28.6
	c7.5,3.8,15.4,6.5,23.7,8c9.3,1.9,20.5,2.8,33.6,2.8c9.1,0,18.1-0.6,27.1-1.7c8.3-1,16.6-2.5,24.8-4.5c7.1-1.7,14-3.7,20.8-6.2
	c5.2-1.8,10.2-4.1,15-6.8L1217.7,357.5z M1183,256.7c-0.6-5-1.9-9.8-4.1-14.3c-2.6-5.3-6.3-9.8-11-13.4c-5-4-11.5-7.3-19.5-9.8
	c-8-2.6-18.1-3.8-30.1-3.9c-11.3,0-21.1,1.4-29.3,4.2c-7.4,2.4-14.4,5.9-20.7,10.5c-5.1,3.7-9.5,8.2-13,13.4c-2.8,4-4.8,8.5-6,13.3
	L1183,256.7z"/>
<path class="st0" d="M1450.4,232.8c-3.5-1.7-8.2-3.7-14-5.8c-5.8-2.2-12.4-4.2-19.7-6.2c-7.9-2.1-15.8-3.7-23.9-4.9
	c-8.8-1.3-17.6-2-26.4-2c-7.2,0-13.4,0.2-18.5,0.7c-4.3,0.3-8.6,0.9-12.9,1.8c-2.8,0.5-5.6,1.4-8.3,2.5c-1.7,0.7-3.3,1.7-4.7,2.9
	c-1,0.8-1.7,1.8-2.1,3c-0.3,0.9-0.5,1.8-0.5,2.7c0,2.7,1.4,5.1,4.1,7.1c3.4,2.4,7.2,4.2,11.1,5.4c5.4,1.8,10.9,3.3,16.4,4.5
	c6.2,1.4,12.9,2.8,19.9,4.3c7,1.5,14.2,3.1,21.7,4.9c7.5,1.8,14.7,3.8,21.7,6.2c6.8,2.3,13.4,5,19.9,8.2c5.9,2.9,11.4,6.6,16.4,10.9
	c4.6,4,8.4,8.9,11.1,14.4c2.8,5.8,4.2,12.2,4.1,18.6c0,9-1.6,16.6-4.8,23.1c-3,6.3-7.4,11.8-12.7,16.3c-5.5,4.5-11.7,8.2-18.3,10.7
	c-7.1,2.7-14.4,4.8-21.9,6.2c-7.7,1.4-15.4,2.4-23.2,2.8c-7.8,0.5-15.3,0.7-22.3,0.7c-17.2,0.1-34.3-1.4-51.2-4.5
	c-14.1-2.6-28.1-6.4-41.6-11.3v-44.5c13.4,7.2,27.6,12.7,42.4,16.1c16.7,4,33.8,5.9,50.9,5.8c8.7,0.1,17.5-0.4,26.1-1.7
	c6.7-1.1,12-2.6,15.8-4.3c3.8-1.8,6.4-3.7,7.7-5.8c1.2-1.8,1.9-3.8,2-6c-0.1-3.1-1.6-6-4.1-7.8c-3.3-2.6-7.1-4.5-11.1-5.8
	c-5.4-1.9-10.9-3.4-16.4-4.6c-6.2-1.4-12.9-2.8-19.9-4.2s-14.2-2.9-21.6-4.5c-7.4-1.6-14.6-3.5-21.6-5.8c-6.8-2.1-13.4-4.7-19.9-7.7
	c-5.9-2.7-11.4-6.2-16.4-10.4c-4.6-3.9-8.4-8.6-11.1-14c-2.8-5.7-4.2-12-4.1-18.4c0-8.2,1.4-15.3,4.3-21.3
	c2.8-5.9,6.8-11.1,11.7-15.3c5.1-4.3,10.9-7.8,17.1-10.2c6.6-2.7,13.4-4.7,20.4-6.1c7.2-1.5,14.4-2.5,21.7-3
	c7.3-0.5,14.3-0.8,20.9-0.8c7.2,0,14.7,0.4,22.3,1.1s15.2,1.7,22.6,3.1c7.4,1.3,14.6,2.9,21.5,4.6c6.9,1.7,13.3,3.5,19.2,5.4
	L1450.4,232.8z"/>
<path class="st0" d="M1691.8,366.7V289h-128v77.7h-50.3V180.3h50.3v67.8h128v-67.8h50.3v186.3H1691.8z"/>
<path class="st0" d="M2028.8,273.4c0.2,10.7-1.2,21.4-3.9,31.8c-2.3,8.6-6,16.8-11,24.2c-4.6,6.8-10.4,12.7-17.1,17.5
	c-6.8,4.9-14.3,8.8-22.2,11.5c-8.5,3-17.3,5.1-26.3,6.3c-9.8,1.3-19.6,2-29.4,2h-118.3V180.3h118c9.8,0,19.7,0.7,29.4,2
	c9,1.2,17.8,3.3,26.4,6.3c7.9,2.8,15.4,6.6,22.3,11.5c6.7,4.8,12.5,10.7,17.2,17.5c5,7.4,8.7,15.6,11,24.2
	C2027.5,252.1,2028.9,262.7,2028.8,273.4z M1978,273.4c0-8.9-1.2-16.7-3.5-23.3c-2.1-6.4-6-12-11.1-16.3c-5.1-4.3-11.8-7.5-20-9.6
	c-8.2-2.1-18.3-3.2-30.1-3.2h-62.5v105.3h62.5c11.8,0,21.9-1.1,30.1-3.2c8.2-2.1,14.9-5.4,20-9.8c5.1-4.4,9-10.1,11.1-16.5
	C1976.9,290.1,1978,282.3,1978,273.4L1978,273.4z"/>
</svg>
