<svg id="Layer_1" data-name="Layer 1" xmlns="http://www.w3.org/2000/svg" xmlns:xlink="http://www.w3.org/1999/xlink" viewBox="0 0 2093.73 549.1"><defs><style>.cls-1{fill:url(#linear-gradient);}.cls-2{fill:url(#linear-gradient-2);}.cls-3{fill:url(#linear-gradient-3);}.cls-4{fill:#fff;}</style><linearGradient id="linear-gradient" x1="45.42" y1="465.55" x2="348.2" y2="106.99" gradientUnits="userSpaceOnUse"><stop offset="0.01" stop-color="#1765ab"/><stop offset="0.2" stop-color="#1a65ad"/><stop offset="0.35" stop-color="#2563b2"/><stop offset="0.5" stop-color="#3661bc"/><stop offset="0.64" stop-color="#4f5dc9"/><stop offset="0.78" stop-color="#6e59da"/><stop offset="0.91" stop-color="#9453ee"/><stop offset="1" stop-color="#b34fff"/></linearGradient><linearGradient id="linear-gradient-2" x1="173.93" y1="574.07" x2="476.71" y2="215.51" xlink:href="#linear-gradient"/><linearGradient id="linear-gradient-3" x1="18.63" y1="442.93" x2="321.42" y2="84.37" xlink:href="#linear-gradient"/></defs><title>Logotipo_Horizontal_Degrade_FundoEscuro_Azul</title><path class="cls-1" d="M230.48,315.94V462.28a19.36,19.36,0,0,1-29,16.77L85.15,411.93A40.33,40.33,0,0,1,65,377V222.13a7.45,7.45,0,0,1,11.18-6.45l144.63,83.49A19.34,19.34,0,0,1,230.48,315.94Z"/><path class="cls-2" d="M445.61,222.13V377a40.32,40.32,0,0,1-20.16,34.93L309.2,479.05a19.37,19.37,0,0,1-29.05-16.77V315.94a19.37,19.37,0,0,1,9.69-16.78l144.6-83.48A7.44,7.44,0,0,1,445.61,222.13Z"/><path class="cls-3" d="M255.31,103.18a7.23,7.23,0,0,1,3.63,1l101.38,58.53-105,60.63-105-60.63,101.4-58.53a7.27,7.27,0,0,1,3.64-1m0-35.76a43,43,0,0,0-21.51,5.76L90.68,155.8a8,8,0,0,0,0,13.77L245,258.64a20.71,20.71,0,0,0,20.66,0L419.9,169.57a8,8,0,0,0,0-13.77L276.82,73.19a42.93,42.93,0,0,0-21.51-5.77Z"/><path class="cls-4" d="M672.45,180.33v20.48q6.64-4.22,14.45-8.69a134.55,134.55,0,0,1,17-8.13,130.06,130.06,0,0,1,19.67-6,103.22,103.22,0,0,1,22.72-2.37,77.42,77.42,0,0,1,20.88,2.51,61.65,61.65,0,0,1,15.53,6.51,51.87,51.87,0,0,1,11.19,9,88.6,88.6,0,0,1,8,9.83q9.63-6.24,19-11.39a153.79,153.79,0,0,1,18.85-8.82,118.4,118.4,0,0,1,19.4-5.63,105.68,105.68,0,0,1,20.62-2,91.7,91.7,0,0,1,30.58,4.75,68,68,0,0,1,22.85,13,55.85,55.85,0,0,1,14.31,19.46,58.51,58.51,0,0,1,4.95,23.94V366.68H902.07V243.94a32.77,32.77,0,0,0-2.3-12.89,24.15,24.15,0,0,0-6.17-8.82,24.73,24.73,0,0,0-9.09-5,36.79,36.79,0,0,0-11-1.63q-27.13,0-61.85,24.41a52.29,52.29,0,0,1,.61,5.43c.14,2.08.2,4.16.2,6.24v115H762.11V242.85a31.26,31.26,0,0,0-2.31-12.68,22.36,22.36,0,0,0-6.31-8.48,24.69,24.69,0,0,0-9.22-4.68,41.83,41.83,0,0,0-11-1.42,59.15,59.15,0,0,0-14.86,2,95.23,95.23,0,0,0-15.73,5.7A120.5,120.5,0,0,0,687,232a153.1,153.1,0,0,0-14.58,10.85V366.68H622.14V180.33Z"/><path class="cls-4" d="M1217.68,357.46a268.78,268.78,0,0,1-45.77,10.92,325.16,325.16,0,0,1-46.73,3.32q-30.51,0-54.31-6.58t-40.08-19.06A82.46,82.46,0,0,1,1006,315.55q-8.55-18-8.55-40.83a90.25,90.25,0,0,1,8.61-39.26A93.51,93.51,0,0,1,1030.45,204q15.79-13.35,38.18-20.88t49.91-7.53q25.37,0,46.45,6.85a100.43,100.43,0,0,1,36.21,20.27,91.16,91.16,0,0,1,23.47,33.1q8.34,19.66,8.34,45.3v12.48H1049.37a45.06,45.06,0,0,0,23.33,28.61,86.65,86.65,0,0,0,23.66,8q14,2.83,33.57,2.84a214.34,214.34,0,0,0,27.13-1.69,228.89,228.89,0,0,0,24.82-4.48,193,193,0,0,0,20.82-6.17,90.35,90.35,0,0,0,15-6.78ZM1183,256.68a43.91,43.91,0,0,0-4.13-14.3A37.65,37.65,0,0,0,1167.91,229q-7.47-6-19.53-9.84t-30.11-3.86q-16.95,0-29.3,4.2A74.49,74.49,0,0,0,1068.29,230a52.13,52.13,0,0,0-13,13.42,42,42,0,0,0-6,13.29Z"/><path class="cls-4" d="M1450.42,232.81q-5.28-2.56-14-5.83t-19.66-6.17a227.43,227.43,0,0,0-23.87-4.88,175.26,175.26,0,0,0-26.45-2q-10.85,0-18.51.68a114.74,114.74,0,0,0-12.89,1.76,39,39,0,0,0-8.27,2.51,18.32,18.32,0,0,0-4.68,2.92,7,7,0,0,0-2.1,3,9,9,0,0,0-.48,2.71q0,4.08,4.07,7.12a39.56,39.56,0,0,0,11.12,5.43,168.76,168.76,0,0,0,16.41,4.48q9.36,2.1,19.87,4.34t21.7,4.88q11.19,2.64,21.7,6.17a153.36,153.36,0,0,1,19.87,8.21,75.22,75.22,0,0,1,16.41,10.91,47.32,47.32,0,0,1,11.13,14.38,41,41,0,0,1,4.07,18.58q0,13.43-4.75,23.06a49.52,49.52,0,0,1-12.68,16.27A64.15,64.15,0,0,1,1430.08,362a126.21,126.21,0,0,1-21.91,6.17A179.56,179.56,0,0,1,1385,371q-11.73.68-22.31.68a270.29,270.29,0,0,1-51.2-4.55,256.54,256.54,0,0,1-41.57-11.32V311.34a171,171,0,0,0,42.39,16.14,213.29,213.29,0,0,0,50.92,5.84,163.19,163.19,0,0,0,26.11-1.7q10.11-1.69,15.8-4.34c3.8-1.76,6.38-3.69,7.73-5.76a11,11,0,0,0,2-6,9.84,9.84,0,0,0-4.07-7.8,37.2,37.2,0,0,0-11.12-5.83,140.75,140.75,0,0,0-16.41-4.61q-9.36-2.12-19.87-4.21t-21.64-4.54q-11.12-2.44-21.63-5.77a158.06,158.06,0,0,1-19.87-7.73,72.83,72.83,0,0,1-16.41-10.44,45.7,45.7,0,0,1-11.12-14,39.78,39.78,0,0,1-4.07-18.38q0-12.35,4.34-21.29a46.31,46.31,0,0,1,11.73-15.26,61.91,61.91,0,0,1,17.09-10.24,114.61,114.61,0,0,1,20.41-6.1,173.14,173.14,0,0,1,21.7-3q11-.81,20.89-.81,10.86,0,22.31,1.08t22.58,3.05q11.13,2,21.5,4.55t19.19,5.42Z"/><path class="cls-4" d="M1691.84,366.68V289h-128v77.72h-50.32V180.33h50.32v67.81h128V180.33h50.32V366.68Z"/><path class="cls-4" d="M2028.75,273.37a116.74,116.74,0,0,1-3.94,31.8,80.9,80.9,0,0,1-11,24.21,71.44,71.44,0,0,1-17.09,17.5,88.53,88.53,0,0,1-22.18,11.53,133.25,133.25,0,0,1-26.31,6.3,213.13,213.13,0,0,1-29.43,2H1800.48V180.33h118a213.16,213.16,0,0,1,29.43,2,134.81,134.81,0,0,1,26.38,6.31,90.21,90.21,0,0,1,22.31,11.46,69.48,69.48,0,0,1,17.16,17.5,81.82,81.82,0,0,1,11,24.21A115.38,115.38,0,0,1,2028.75,273.37Zm-50.73,0q0-13.42-3.46-23.33a36.62,36.62,0,0,0-11.12-16.34q-7.67-6.45-20-9.63t-30.11-3.19H1850.8V326.13h62.53q17.76,0,30.11-3.19t20-9.77a37.53,37.53,0,0,0,11.12-16.47Q1978,286.78,1978,273.37Z"/></svg>