<svg id="Layer_1" data-name="Layer 1" xmlns="http://www.w3.org/2000/svg" viewBox="0 0 1400 1400"><defs><style>.cls-1{fill:#fff;}</style></defs><title>Simbolo_Branco</title><path class="cls-1" d="M631.53,814.19V1218c0,41.12-44.52,66.83-80.14,46.27L230.57,1079a111.25,111.25,0,0,1-55.65-96.37V555.38a20.56,20.56,0,0,1,30.84-17.81l399,230.35A53.43,53.43,0,0,1,631.53,814.19Z"/><path class="cls-1" d="M1225.08,555.38V982.66a111.28,111.28,0,0,1-55.64,96.37L848.72,1264.21c-35.61,20.56-80.14-5.14-80.14-46.28V814.19a53.42,53.42,0,0,1,26.71-46.27l399-230.35A20.56,20.56,0,0,1,1225.08,555.38Z"/><path class="cls-1" d="M700,227.19a20.07,20.07,0,0,1,10,2.69L989.75,391.36,700,558.64,410.24,391.37,690,229.88a20.07,20.07,0,0,1,10-2.69m0-98.65a118.67,118.67,0,0,0-59.35,15.9L245.82,372.38a21.94,21.94,0,0,0,0,38L671.53,656.1a57,57,0,0,0,57,0l425.61-245.74a21.94,21.94,0,0,0,0-38L759.38,144.45A118.52,118.52,0,0,0,700,128.54Z"/></svg>